<?xml version="1.0" encoding="utf-8"?>
<!DOCTYPE svg PUBLIC "-//W3C//DTD SVG 1.1//EN" "http://www.w3.org/Graphics/SVG/1.1/DTD/svg11.dtd">
<svg version="1.1" id="Layer_1" xmlns="http://www.w3.org/2000/svg" xmlns:xlink="http://www.w3.org/1999/xlink" x="0px" y="0px"
	 width="30px" height="30px" viewBox="0 0 300 300" enable-background="new 0 0 300 300" xml:space="preserve">
<path style="fill:#1c62cd"
		d="M40.173,30.415c0,0,9.383-7.535,28.575-7.535c19.191,0,26.299,9.383,26.299,18.908s-5.259,12.795-5.259,12.795H34.061v9.241
	h41.511c0,0-18.979,9.596-24.025,13.221H34.061v9.525h7.25c0,0-6.397,7.818-6.397,18.339c0,10.52,4.396,33.692,44.846,33.692
	c0,0,12.232,0.925,30.927-6.966v-17.486c0,0-12.653,11.231-33.835,11.231c-21.182,0-26.584-10.236-26.584-18.624
	s2.702-12.866,13.79-20.187h47.482v-9.525H82.254c0,0,12.724-6.113,19.618-13.221h9.667v-9.241h-3.412c0,0,2.417-5.971,2.417-11.658
	c0-5.686-3.27-33.408-43.644-33.408c0,0-17.344-0.285-26.727,4.407V30.415z" />
</svg>