<svg width="26" height="30" viewBox="0 0 26 30" fill="none" xmlns="http://www.w3.org/2000/svg">
<path d="M12.9939 0C6.36497 0 0.96875 5.39623 0.96875 12.0252C0.96875 12.7799 1.03793 13.5409 1.18259 14.283C1.18888 14.327 1.21403 14.4591 1.26435 14.6855C1.44674 15.4969 1.71718 16.2956 2.06938 17.0566C3.36498 20.1069 6.21403 24.7925 12.4656 29.8113C12.6228 29.9371 12.8115 30 13.0002 30C13.1889 30 13.3776 29.9371 13.5348 29.8113C19.7801 24.7925 22.6354 20.1069 23.931 17.0566C24.2832 16.2956 24.5537 15.5031 24.736 14.6855C24.7864 14.4591 24.8115 14.327 24.8178 14.283C24.9562 13.5409 25.0316 12.7799 25.0316 12.0252C25.0191 5.39623 19.6228 0 12.9939 0ZM23.1323 13.9874C23.1323 14 23.126 14.0126 23.126 14.0252C23.1197 14.0566 23.1008 14.1509 23.0694 14.2956C23.0694 14.3019 23.0694 14.3019 23.0694 14.3082C22.9121 15.0126 22.6794 15.6981 22.3713 16.3585C22.365 16.3648 22.365 16.3774 22.3587 16.3836C21.1826 19.1698 18.604 23.4214 12.9939 28.0566C7.38384 23.4214 4.80523 19.1698 3.62913 16.3836C3.62284 16.3774 3.62284 16.3648 3.61655 16.3585C3.31466 15.7044 3.08196 15.0126 2.91843 14.3082C2.91843 14.3019 2.91843 14.3019 2.91843 14.2956C2.8807 14.1509 2.86812 14.0566 2.86183 14.0252C2.86183 14.0126 2.85554 14 2.85554 13.9811C2.72976 13.3333 2.66686 12.6792 2.66686 12.0189C2.66686 6.32704 7.30208 1.69182 12.9939 1.69182C18.6857 1.69182 23.3209 6.32704 23.3209 12.0189C23.3209 12.6855 23.2581 13.3459 23.1323 13.9874Z" fill="black"/>
<path d="M12.9941 4.52197C8.78656 4.52197 5.35889 7.94965 5.35889 12.1572C5.35889 16.3647 8.78656 19.7924 12.9941 19.7924C17.2016 19.7924 20.6293 16.3647 20.6293 12.1572C20.6293 7.94965 17.2016 4.52197 12.9941 4.52197ZM12.9941 18.0943C9.71737 18.0943 7.057 15.4276 7.057 12.1572C7.057 8.88675 9.72366 6.22009 12.9941 6.22009C16.2645 6.22009 18.9312 8.88675 18.9312 12.1572C18.9312 15.4276 16.2708 18.0943 12.9941 18.0943Z" fill="black"/>
</svg>
