<svg width="30" height="30" viewBox="0 0 30 30" fill="none" xmlns="http://www.w3.org/2000/svg">
<g clip-path="url(#clip0_58_7)">
<path d="M17.4188 29.8048C17.2938 29.8252 17.1684 29.8439 17.0425 29.8611C17.1684 29.8439 17.2938 29.8252 17.4188 29.8048Z" fill="#2F3035"/>
<path d="M17.7188 29.7535C17.659 29.7645 17.5993 29.7746 17.5396 29.7849C17.5993 29.7746 17.659 29.7645 17.7188 29.7535Z" fill="#2F3035"/>
<path d="M16.7072 29.9027C16.5609 29.9192 16.4137 29.9338 16.2661 29.9462C16.4137 29.9338 16.5609 29.9192 16.7072 29.9027Z" fill="#2F3035"/>
<path d="M16.9952 29.8674C16.9249 29.8768 16.8542 29.8855 16.7837 29.8938C16.8542 29.8855 16.9249 29.8768 16.9952 29.8674Z" fill="#2F3035"/>
<path d="M18.1271 29.6725C18.0745 29.6837 18.0216 29.6949 17.9688 29.7057C18.0216 29.6949 18.0745 29.6837 18.1271 29.6725Z" fill="#2F3035"/>
<path d="M19.1404 29.4207C19.0978 29.4328 19.0553 29.4442 19.0127 29.4561C19.0553 29.4442 19.0978 29.4328 19.1404 29.4207Z" fill="#2F3035"/>
<path d="M18.834 29.5045C18.7878 29.5166 18.7413 29.529 18.6948 29.5407C18.7413 29.529 18.7878 29.5169 18.834 29.5045Z" fill="#2F3035"/>
<path d="M18.433 29.6047C18.384 29.6162 18.3346 29.6269 18.2852 29.6379C18.3346 29.6269 18.384 29.6162 18.433 29.6047Z" fill="#2F3035"/>
<path d="M16.2615 29.9467C16.1826 29.9533 16.1036 29.9592 16.0244 29.9645C16.1036 29.9592 16.1826 29.9533 16.2615 29.9467Z" fill="#2F3035"/>
<path d="M30 15C30 6.717 23.283 0 15 0C6.717 0 0 6.717 0 15C0 23.283 6.717 30 15 30C15.0881 30 15.1758 29.9982 15.2637 29.9966V18.3197H12.041V14.564H15.2637V11.8002C15.2637 8.59497 17.2204 6.85043 20.0796 6.85043C21.4487 6.85043 22.6257 6.95251 22.9688 6.99806V10.348H20.9972C19.4417 10.348 19.1405 11.0873 19.1405 12.1719V14.564H22.8598L22.375 18.3197H19.1405V29.4205C25.4102 27.6231 30 21.8468 30 15Z" fill="#2F3035"/>
<path d="M15.9911 29.9666C15.835 29.9766 15.6782 29.9846 15.521 29.9899C15.6782 29.9846 15.835 29.9766 15.9911 29.9666Z" fill="#2F3035"/>
<path d="M15.5127 29.9904C15.4298 29.9931 15.3468 29.9952 15.2637 29.9965C15.3468 29.9952 15.4298 29.9931 15.5127 29.9904Z" fill="#2F3035"/>
</g>
<defs>
<clipPath id="clip0_58_7">
<rect width="30" height="30" fill="white"/>
</clipPath>
</defs>
</svg>
